<svg xmlns="http://www.w3.org/2000/svg" xmlns:xlink="http://www.w3.org/1999/xlink" viewBox="196 182 312 225" preserveAspectRatio="xMidYMid meet" version="1.0"><rect x="196" y="182" width="312" height="225" fill="#035440" rx="40"/><defs><clipPath id="6ba051d592"><path d="M 211.949219 275.84375 L 227.71875 275.84375 L 227.71875 384.230469 L 211.949219 384.230469 Z M 211.949219 275.84375 " clip-rule="nonzero"/></clipPath><clipPath id="9731b0e9d1"><path d="M 0.949219 0.84375 L 16.71875 0.84375 L 16.71875 109.230469 L 0.949219 109.230469 Z M 0.949219 0.84375 " clip-rule="nonzero"/></clipPath><clipPath id="17206865a9"><rect x="0" width="17" y="0" height="110"/></clipPath><clipPath id="40c1e87a42"><path d="M 410.304688 275.84375 L 426.074219 275.84375 L 426.074219 384.230469 L 410.304688 384.230469 Z M 410.304688 275.84375 " clip-rule="nonzero"/></clipPath><clipPath id="2bf57e5a6f"><path d="M 0.304688 0.84375 L 16.074219 0.84375 L 16.074219 109.230469 L 0.304688 109.230469 Z M 0.304688 0.84375 " clip-rule="nonzero"/></clipPath><clipPath id="3dd97808c8"><rect x="0" width="17" y="0" height="110"/></clipPath><clipPath id="c77d635b75"><path d="M 346.402344 330.035156 L 362.175781 330.035156 L 362.175781 384.230469 L 346.402344 384.230469 Z M 346.402344 330.035156 " clip-rule="nonzero"/></clipPath><clipPath id="3a9a227668"><path d="M 0.402344 0.0351562 L 16.175781 0.0351562 L 16.175781 54.230469 L 0.402344 54.230469 Z M 0.402344 0.0351562 " clip-rule="nonzero"/></clipPath><clipPath id="774daf2566"><rect x="0" width="17" y="0" height="55"/></clipPath><clipPath id="dd5fb03057"><path d="M 275.847656 330.035156 L 291.621094 330.035156 L 291.621094 384.230469 L 275.847656 384.230469 Z M 275.847656 330.035156 " clip-rule="nonzero"/></clipPath><clipPath id="750187a16c"><path d="M 0.847656 0.0351562 L 16.621094 0.0351562 L 16.621094 54.230469 L 0.847656 54.230469 Z M 0.847656 0.0351562 " clip-rule="nonzero"/></clipPath><clipPath id="27dde466de"><rect x="0" width="17" y="0" height="55"/></clipPath><clipPath id="35f96e33a5"><path d="M 312 215 L 427 215 L 427 291 L 312 291 Z M 312 215 " clip-rule="nonzero"/></clipPath><clipPath id="198daaceff"><path d="M 426.074219 276.921875 L 418.132812 290.550781 L 312.902344 229.238281 L 320.84375 215.609375 Z M 426.074219 276.921875 " clip-rule="nonzero"/></clipPath><clipPath id="b166b96789"><path d="M 0.789062 0.394531 L 114.117188 0.394531 L 114.117188 75.628906 L 0.789062 75.628906 Z M 0.789062 0.394531 " clip-rule="nonzero"/></clipPath><clipPath id="8c7d12f6d1"><path d="M 114.074219 61.921875 L 106.132812 75.550781 L 0.902344 14.238281 L 8.84375 0.609375 Z M 114.074219 61.921875 " clip-rule="nonzero"/></clipPath><clipPath id="c850a2f5b5"><rect x="0" width="115" y="0" height="76"/></clipPath><clipPath id="0c6543cd8f"><path d="M 211 215 L 330 215 L 330 291 L 211 291 Z M 211 215 " clip-rule="nonzero"/></clipPath><clipPath id="b3485c6644"><path d="M 321.761719 215.609375 L 329.4375 229.386719 L 219.617188 290.550781 L 211.945312 276.769531 Z M 321.761719 215.609375 " clip-rule="nonzero"/></clipPath><clipPath id="6e39c04dd2"><path d="M 0.917969 0.394531 L 118.558594 0.394531 L 118.558594 75.628906 L 0.917969 75.628906 Z M 0.917969 0.394531 " clip-rule="nonzero"/></clipPath><clipPath id="fb2d02d481"><path d="M 110.761719 0.609375 L 118.4375 14.386719 L 8.617188 75.550781 L 0.945312 61.769531 Z M 110.761719 0.609375 " clip-rule="nonzero"/></clipPath><clipPath id="2c631f64b8"><rect x="0" width="119" y="0" height="76"/></clipPath><clipPath id="6592b42e50"><path d="M 275.84375 314.261719 L 362.167969 314.261719 L 362.167969 330.03125 L 275.84375 330.03125 Z M 275.84375 314.261719 " clip-rule="nonzero"/></clipPath><clipPath id="09ab873480"><path d="M 0.84375 0.261719 L 87.167969 0.261719 L 87.167969 16.03125 L 0.84375 16.03125 Z M 0.84375 0.261719 " clip-rule="nonzero"/></clipPath><clipPath id="9ecbdd104f"><rect x="0" width="88" y="0" height="17"/></clipPath><clipPath id="d71ae96100"><path d="M 211.945312 376.34375 L 291.617188 376.34375 L 291.617188 392.113281 L 211.945312 392.113281 Z M 211.945312 376.34375 " clip-rule="nonzero"/></clipPath><clipPath id="46e0e7b916"><path d="M 0.945312 0.34375 L 80.617188 0.34375 L 80.617188 16.113281 L 0.945312 16.113281 Z M 0.945312 0.34375 " clip-rule="nonzero"/></clipPath><clipPath id="d0263e64e2"><rect x="0" width="81" y="0" height="17"/></clipPath><clipPath id="3f884c497d"><path d="M 346.398438 376.34375 L 426.074219 376.34375 L 426.074219 392.113281 L 346.398438 392.113281 Z M 346.398438 376.34375 " clip-rule="nonzero"/></clipPath><clipPath id="0c95df7938"><path d="M 0.398438 0.34375 L 80.074219 0.34375 L 80.074219 16.113281 L 0.398438 16.113281 Z M 0.398438 0.34375 " clip-rule="nonzero"/></clipPath><clipPath id="cf07d9e991"><rect x="0" width="81" y="0" height="17"/></clipPath><clipPath id="fbf4c93362"><path d="M 477.28125 197.886719 L 493.050781 197.886719 L 493.050781 392.117188 L 477.28125 392.117188 Z M 477.28125 197.886719 " clip-rule="nonzero"/></clipPath><clipPath id="9c3f216ff7"><path d="M 0.28125 0.886719 L 16.050781 0.886719 L 16.050781 195.117188 L 0.28125 195.117188 Z M 0.28125 0.886719 " clip-rule="nonzero"/></clipPath><clipPath id="87793855a3"><rect x="0" width="17" y="0" height="196"/></clipPath><clipPath id="fd6a64961e"><path d="M 443.527344 376.339844 L 493.046875 376.339844 L 493.046875 392.113281 L 443.527344 392.113281 Z M 443.527344 376.339844 " clip-rule="nonzero"/></clipPath><clipPath id="2f7b42a7b9"><path d="M 0.527344 0.339844 L 50.046875 0.339844 L 50.046875 16.113281 L 0.527344 16.113281 Z M 0.527344 0.339844 " clip-rule="nonzero"/></clipPath><clipPath id="d83c11ea30"><rect x="0" width="51" y="0" height="17"/></clipPath><clipPath id="b4bd215b7e"><path d="M 447.039062 341.359375 L 463.019531 341.359375 L 463.019531 357.132812 L 447.039062 357.132812 Z M 447.039062 341.359375 " clip-rule="nonzero"/></clipPath><clipPath id="8f78374c01"><path d="M 0.0390625 0.359375 L 16.019531 0.359375 L 16.019531 16.132812 L 0.0390625 16.132812 Z M 0.0390625 0.359375 " clip-rule="nonzero"/></clipPath><clipPath id="775afd4cb0"><rect x="0" width="17" y="0" height="17"/></clipPath><clipPath id="ae78605bb1"><path d="M 447.039062 290.554688 L 463.019531 290.554688 L 463.019531 306.324219 L 447.039062 306.324219 Z M 447.039062 290.554688 " clip-rule="nonzero"/></clipPath><clipPath id="a2031101a4"><path d="M 0.0390625 0.554688 L 16.019531 0.554688 L 16.019531 16.324219 L 0.0390625 16.324219 Z M 0.0390625 0.554688 " clip-rule="nonzero"/></clipPath><clipPath id="096e7f689c"><rect x="0" width="17" y="0" height="17"/></clipPath><clipPath id="1e3e43d0f7"><path d="M 447.039062 234.5625 L 463.019531 234.5625 L 463.019531 250.335938 L 447.039062 250.335938 Z M 447.039062 234.5625 " clip-rule="nonzero"/></clipPath><clipPath id="22c13ccd66"><path d="M 0.0390625 0.5625 L 16.019531 0.5625 L 16.019531 16.335938 L 0.0390625 16.335938 Z M 0.0390625 0.5625 " clip-rule="nonzero"/></clipPath><clipPath id="085887bada"><rect x="0" width="17" y="0" height="17"/></clipPath><clipPath id="1f055f59a4"><path d="M 362.171875 197.886719 L 493.050781 197.886719 L 493.050781 213.660156 L 362.171875 213.660156 Z M 362.171875 197.886719 " clip-rule="nonzero"/></clipPath><clipPath id="a36dfffa4d"><path d="M 0.171875 0.886719 L 131.050781 0.886719 L 131.050781 16.660156 L 0.171875 16.660156 Z M 0.171875 0.886719 " clip-rule="nonzero"/></clipPath><clipPath id="3f5d915e80"><rect x="0" width="132" y="0" height="17"/></clipPath><clipPath id="478b55af1d"><path d="M 361 206 L 378 206 L 378 223 L 361 223 Z M 361 206 " clip-rule="nonzero"/></clipPath><clipPath id="6073869fc7"><path d="M 361.496094 222.363281 L 361.863281 205.710938 L 377.480469 206.058594 L 377.109375 222.707031 Z M 361.496094 222.363281 " clip-rule="nonzero"/></clipPath><clipPath id="a819467d70"><path d="M 361.679688 214.066406 L 377.476562 206.113281 L 377.109375 222.707031 Z M 361.679688 214.066406 " clip-rule="nonzero"/></clipPath><clipPath id="ddf33016c6"><path d="M 0.664062 0.0507812 L 16.71875 0.0507812 L 16.71875 16.824219 L 0.664062 16.824219 Z M 0.664062 0.0507812 " clip-rule="nonzero"/></clipPath><clipPath id="44784216ce"><path d="M 0.496094 16.363281 L 0.863281 -0.289062 L 16.480469 0.0585938 L 16.109375 16.707031 Z M 0.496094 16.363281 " clip-rule="nonzero"/></clipPath><clipPath id="901ab93759"><path d="M 0.679688 8.066406 L 16.476562 0.113281 L 16.109375 16.707031 Z M 0.679688 8.066406 " clip-rule="nonzero"/></clipPath><clipPath id="3da933c86c"><rect x="0" width="17" y="0" height="17"/></clipPath></defs><g clip-path="url(#6ba051d592)"><g transform="matrix(1, 0, 0, 1, 211, 275)"><g clip-path="url(#17206865a9)"><g clip-path="url(#9731b0e9d1)"><path fill="#ffffff" d="M 0.949219 0.84375 L 16.71875 0.84375 L 16.71875 109.214844 L 0.949219 109.214844 Z M 0.949219 0.84375 " fill-opacity="1" fill-rule="nonzero"/></g></g></g></g><g clip-path="url(#40c1e87a42)"><g transform="matrix(1, 0, 0, 1, 410, 275)"><g clip-path="url(#3dd97808c8)"><g clip-path="url(#2bf57e5a6f)"><path fill="#ffffff" d="M 0.304688 0.84375 L 16.074219 0.84375 L 16.074219 109.214844 L 0.304688 109.214844 Z M 0.304688 0.84375 " fill-opacity="1" fill-rule="nonzero"/></g></g></g></g><g clip-path="url(#c77d635b75)"><g transform="matrix(1, 0, 0, 1, 346, 330)"><g clip-path="url(#774daf2566)"><g clip-path="url(#3a9a227668)"><path fill="#ffffff" d="M 0.402344 0.0351562 L 16.175781 0.0351562 L 16.175781 54.253906 L 0.402344 54.253906 Z M 0.402344 0.0351562 " fill-opacity="1" fill-rule="nonzero"/></g></g></g></g><g clip-path="url(#dd5fb03057)"><g transform="matrix(1, 0, 0, 1, 275, 330)"><g clip-path="url(#27dde466de)"><g clip-path="url(#750187a16c)"><path fill="#ffffff" d="M 0.847656 0.0351562 L 16.621094 0.0351562 L 16.621094 54.253906 L 0.847656 54.253906 Z M 0.847656 0.0351562 " fill-opacity="1" fill-rule="nonzero"/></g></g></g></g><g clip-path="url(#35f96e33a5)"><g clip-path="url(#198daaceff)"><g transform="matrix(1, 0, 0, 1, 312, 215)"><g clip-path="url(#c850a2f5b5)"><g clip-path="url(#b166b96789)"><g clip-path="url(#8c7d12f6d1)"><path fill="#ffffff" d="M 114.074219 61.921875 L 106.132812 75.550781 L 0.890625 14.230469 L 8.832031 0.601562 Z M 114.074219 61.921875 " fill-opacity="1" fill-rule="nonzero"/></g></g></g></g></g></g><g clip-path="url(#0c6543cd8f)"><g clip-path="url(#b3485c6644)"><g transform="matrix(1, 0, 0, 1, 211, 215)"><g clip-path="url(#2c631f64b8)"><g clip-path="url(#6e39c04dd2)"><g clip-path="url(#fb2d02d481)"><path fill="#ffffff" d="M 110.761719 0.609375 L 118.4375 14.386719 L 8.632812 75.539062 L 0.957031 61.761719 Z M 110.761719 0.609375 " fill-opacity="1" fill-rule="nonzero"/></g></g></g></g></g></g><g clip-path="url(#6592b42e50)"><g transform="matrix(1, 0, 0, 1, 275, 314)"><g clip-path="url(#9ecbdd104f)"><g clip-path="url(#09ab873480)"><path fill="#ffffff" d="M 87.167969 0.261719 L 87.167969 16.03125 L 0.851562 16.03125 L 0.851562 0.261719 Z M 87.167969 0.261719 " fill-opacity="1" fill-rule="nonzero"/></g></g></g></g><g clip-path="url(#d71ae96100)"><g transform="matrix(1, 0, 0, 1, 211, 376)"><g clip-path="url(#d0263e64e2)"><g clip-path="url(#46e0e7b916)"><path fill="#ffffff" d="M 80.617188 0.34375 L 80.617188 16.113281 L 0.957031 16.113281 L 0.957031 0.34375 Z M 80.617188 0.34375 " fill-opacity="1" fill-rule="nonzero"/></g></g></g></g><g clip-path="url(#3f884c497d)"><g transform="matrix(1, 0, 0, 1, 346, 376)"><g clip-path="url(#cf07d9e991)"><g clip-path="url(#0c95df7938)"><path fill="#ffffff" d="M 80.074219 0.34375 L 80.074219 16.113281 L 0.410156 16.113281 L 0.410156 0.34375 Z M 80.074219 0.34375 " fill-opacity="1" fill-rule="nonzero"/></g></g></g></g><g clip-path="url(#fbf4c93362)"><g transform="matrix(1, 0, 0, 1, 477, 197)"><g clip-path="url(#87793855a3)"><g clip-path="url(#9c3f216ff7)"><path fill="#ffffff" d="M 0.28125 0.886719 L 16.050781 0.886719 L 16.050781 195.144531 L 0.28125 195.144531 Z M 0.28125 0.886719 " fill-opacity="1" fill-rule="nonzero"/></g></g></g></g><g clip-path="url(#fd6a64961e)"><g transform="matrix(1, 0, 0, 1, 443, 376)"><g clip-path="url(#d83c11ea30)"><g clip-path="url(#2f7b42a7b9)"><path fill="#ffffff" d="M 50.046875 0.339844 L 50.046875 16.113281 L 0.511719 16.113281 L 0.511719 0.339844 Z M 50.046875 0.339844 " fill-opacity="1" fill-rule="nonzero"/></g></g></g></g><g clip-path="url(#b4bd215b7e)"><g transform="matrix(1, 0, 0, 1, 447, 341)"><g clip-path="url(#775afd4cb0)"><g clip-path="url(#8f78374c01)"><path fill="#ffffff" d="M 16.019531 0.359375 L 16.019531 16.132812 L 0.0625 16.132812 L 0.0625 0.359375 Z M 16.019531 0.359375 " fill-opacity="1" fill-rule="nonzero"/></g></g></g></g><g clip-path="url(#ae78605bb1)"><g transform="matrix(1, 0, 0, 1, 447, 290)"><g clip-path="url(#096e7f689c)"><g clip-path="url(#a2031101a4)"><path fill="#ffffff" d="M 16.019531 0.554688 L 16.019531 16.324219 L 0.0625 16.324219 L 0.0625 0.554688 Z M 16.019531 0.554688 " fill-opacity="1" fill-rule="nonzero"/></g></g></g></g><g clip-path="url(#1e3e43d0f7)"><g transform="matrix(1, 0, 0, 1, 447, 234)"><g clip-path="url(#085887bada)"><g clip-path="url(#22c13ccd66)"><path fill="#ffffff" d="M 16.019531 0.5625 L 16.019531 16.335938 L 0.0625 16.335938 L 0.0625 0.5625 Z M 16.019531 0.5625 " fill-opacity="1" fill-rule="nonzero"/></g></g></g></g><g clip-path="url(#1f055f59a4)"><g transform="matrix(1, 0, 0, 1, 362, 197)"><g clip-path="url(#3f5d915e80)"><g clip-path="url(#a36dfffa4d)"><path fill="#ffffff" d="M 131.050781 0.886719 L 131.050781 16.660156 L 0.191406 16.660156 L 0.191406 0.886719 Z M 131.050781 0.886719 " fill-opacity="1" fill-rule="nonzero"/></g></g></g></g><g clip-path="url(#478b55af1d)"><g clip-path="url(#6073869fc7)"><g clip-path="url(#a819467d70)"><g transform="matrix(1, 0, 0, 1, 361, 206)"><g clip-path="url(#3da933c86c)"><g clip-path="url(#ddf33016c6)"><g clip-path="url(#44784216ce)"><g clip-path="url(#901ab93759)"><path fill="#ffffff" d="M 0.496094 16.363281 L 0.863281 -0.230469 L 16.476562 0.117188 L 16.109375 16.707031 Z M 0.496094 16.363281 " fill-opacity="1" fill-rule="nonzero"/></g></g></g></g></g></g></g></g></svg>