<svg xmlns="http://www.w3.org/2000/svg" xmlns:xlink="http://www.w3.org/1999/xlink" width="940" zoomAndPan="magnify" viewBox="0 0 705 591.000005" height="788" preserveAspectRatio="xMidYMid meet" version="1.0"><defs><g/><clipPath id="3da216a8a2"><path d="M 51.207031 244.320312 L 66.976562 244.320312 L 66.976562 352.707031 L 51.207031 352.707031 Z M 51.207031 244.320312 " clip-rule="nonzero"/></clipPath><clipPath id="a5a3399f60"><path d="M 0.207031 0.320312 L 15.976562 0.320312 L 15.976562 108.707031 L 0.207031 108.707031 Z M 0.207031 0.320312 " clip-rule="nonzero"/></clipPath><clipPath id="44e10af2f7"><rect x="0" width="16" y="0" height="109"/></clipPath><clipPath id="c070280858"><path d="M 249.5625 244.320312 L 265.332031 244.320312 L 265.332031 352.707031 L 249.5625 352.707031 Z M 249.5625 244.320312 " clip-rule="nonzero"/></clipPath><clipPath id="f7b2a94c3b"><path d="M 0.5625 0.320312 L 16.332031 0.320312 L 16.332031 108.707031 L 0.5625 108.707031 Z M 0.5625 0.320312 " clip-rule="nonzero"/></clipPath><clipPath id="07f26bcb44"><rect x="0" width="17" y="0" height="109"/></clipPath><clipPath id="6b1807b147"><path d="M 185.660156 298.511719 L 201.429688 298.511719 L 201.429688 352.707031 L 185.660156 352.707031 Z M 185.660156 298.511719 " clip-rule="nonzero"/></clipPath><clipPath id="1b06ebd0be"><path d="M 0.660156 0.511719 L 16.429688 0.511719 L 16.429688 54.707031 L 0.660156 54.707031 Z M 0.660156 0.511719 " clip-rule="nonzero"/></clipPath><clipPath id="8c92ebc124"><rect x="0" width="17" y="0" height="55"/></clipPath><clipPath id="b384e9d067"><path d="M 115.105469 298.511719 L 130.878906 298.511719 L 130.878906 352.707031 L 115.105469 352.707031 Z M 115.105469 298.511719 " clip-rule="nonzero"/></clipPath><clipPath id="21dae195cf"><path d="M 0.105469 0.511719 L 15.878906 0.511719 L 15.878906 54.707031 L 0.105469 54.707031 Z M 0.105469 0.511719 " clip-rule="nonzero"/></clipPath><clipPath id="ebe5f1b19a"><rect x="0" width="16" y="0" height="55"/></clipPath><clipPath id="968b3a15bf"><path d="M 152 184 L 266 184 L 266 260 L 152 260 Z M 152 184 " clip-rule="nonzero"/></clipPath><clipPath id="5bd4494a71"><path d="M 265.332031 245.398438 L 257.390625 259.027344 L 152.160156 197.714844 L 160.101562 184.085938 Z M 265.332031 245.398438 " clip-rule="nonzero"/></clipPath><clipPath id="dd3dd06ef2"><path d="M 0.0195312 0.0078125 L 113.347656 0.0078125 L 113.347656 75.242188 L 0.0195312 75.242188 Z M 0.0195312 0.0078125 " clip-rule="nonzero"/></clipPath><clipPath id="f6e45fb95d"><path d="M 113.332031 61.398438 L 105.390625 75.027344 L 0.160156 13.714844 L 8.101562 0.0859375 Z M 113.332031 61.398438 " clip-rule="nonzero"/></clipPath><clipPath id="86056c5bde"><rect x="0" width="114" y="0" height="76"/></clipPath><clipPath id="5008eb962d"><path d="M 51 184 L 169 184 L 169 260 L 51 260 Z M 51 184 " clip-rule="nonzero"/></clipPath><clipPath id="25dc0b4031"><path d="M 161.019531 184.085938 L 168.695312 197.863281 L 58.875 259.027344 L 51.199219 245.246094 Z M 161.019531 184.085938 " clip-rule="nonzero"/></clipPath><clipPath id="f3c6fb373c"><path d="M 0.148438 0.0078125 L 117.789062 0.0078125 L 117.789062 75.242188 L 0.148438 75.242188 Z M 0.148438 0.0078125 " clip-rule="nonzero"/></clipPath><clipPath id="f9362aad03"><path d="M 110.019531 0.0859375 L 117.695312 13.863281 L 7.875 75.027344 L 0.199219 61.246094 Z M 110.019531 0.0859375 " clip-rule="nonzero"/></clipPath><clipPath id="2c6e0467c9"><rect x="0" width="118" y="0" height="76"/></clipPath><clipPath id="5697bee1aa"><path d="M 115.101562 282.738281 L 201.425781 282.738281 L 201.425781 298.507812 L 115.101562 298.507812 Z M 115.101562 282.738281 " clip-rule="nonzero"/></clipPath><clipPath id="234cc0825d"><path d="M 0.101562 0.738281 L 86.425781 0.738281 L 86.425781 16.507812 L 0.101562 16.507812 Z M 0.101562 0.738281 " clip-rule="nonzero"/></clipPath><clipPath id="6cd5e327a5"><rect x="0" width="87" y="0" height="17"/></clipPath><clipPath id="396125909a"><path d="M 51.203125 344.820312 L 130.875 344.820312 L 130.875 360.589844 L 51.203125 360.589844 Z M 51.203125 344.820312 " clip-rule="nonzero"/></clipPath><clipPath id="52e7ba8634"><path d="M 0.203125 0.820312 L 79.875 0.820312 L 79.875 16.589844 L 0.203125 16.589844 Z M 0.203125 0.820312 " clip-rule="nonzero"/></clipPath><clipPath id="be0f792c23"><rect x="0" width="80" y="0" height="17"/></clipPath><clipPath id="e4b4fc7d1d"><path d="M 185.65625 344.820312 L 265.332031 344.820312 L 265.332031 360.589844 L 185.65625 360.589844 Z M 185.65625 344.820312 " clip-rule="nonzero"/></clipPath><clipPath id="a6d0f1c068"><path d="M 0.65625 0.820312 L 80.332031 0.820312 L 80.332031 16.589844 L 0.65625 16.589844 Z M 0.65625 0.820312 " clip-rule="nonzero"/></clipPath><clipPath id="1a67ac5691"><rect x="0" width="81" y="0" height="17"/></clipPath><clipPath id="f9cfd23eac"><path d="M 316.535156 166.363281 L 332.308594 166.363281 L 332.308594 360.59375 L 316.535156 360.59375 Z M 316.535156 166.363281 " clip-rule="nonzero"/></clipPath><clipPath id="928fa9023e"><path d="M 0.535156 0.363281 L 16.308594 0.363281 L 16.308594 194.59375 L 0.535156 194.59375 Z M 0.535156 0.363281 " clip-rule="nonzero"/></clipPath><clipPath id="8c07cca5ca"><rect x="0" width="17" y="0" height="195"/></clipPath><clipPath id="e939d9b853"><path d="M 282.78125 344.816406 L 332.304688 344.816406 L 332.304688 360.589844 L 282.78125 360.589844 Z M 282.78125 344.816406 " clip-rule="nonzero"/></clipPath><clipPath id="2a5bac2bb0"><path d="M 0.78125 0.816406 L 50.304688 0.816406 L 50.304688 16.589844 L 0.78125 16.589844 Z M 0.78125 0.816406 " clip-rule="nonzero"/></clipPath><clipPath id="d5e36ca7d2"><rect x="0" width="51" y="0" height="17"/></clipPath><clipPath id="d25105b49f"><path d="M 286.296875 309.835938 L 302.277344 309.835938 L 302.277344 325.609375 L 286.296875 325.609375 Z M 286.296875 309.835938 " clip-rule="nonzero"/></clipPath><clipPath id="54e5464e3d"><path d="M 0.296875 0.835938 L 16.277344 0.835938 L 16.277344 16.609375 L 0.296875 16.609375 Z M 0.296875 0.835938 " clip-rule="nonzero"/></clipPath><clipPath id="163f0bcf89"><rect x="0" width="17" y="0" height="17"/></clipPath><clipPath id="9e3e2c3840"><path d="M 286.296875 259.03125 L 302.277344 259.03125 L 302.277344 274.800781 L 286.296875 274.800781 Z M 286.296875 259.03125 " clip-rule="nonzero"/></clipPath><clipPath id="38f80c48f6"><path d="M 0.296875 0.03125 L 16.277344 0.03125 L 16.277344 15.800781 L 0.296875 15.800781 Z M 0.296875 0.03125 " clip-rule="nonzero"/></clipPath><clipPath id="880be7cd20"><rect x="0" width="17" y="0" height="16"/></clipPath><clipPath id="85045a985f"><path d="M 286.296875 203.039062 L 302.277344 203.039062 L 302.277344 218.8125 L 286.296875 218.8125 Z M 286.296875 203.039062 " clip-rule="nonzero"/></clipPath><clipPath id="0686388543"><path d="M 0.296875 0.0390625 L 16.277344 0.0390625 L 16.277344 15.8125 L 0.296875 15.8125 Z M 0.296875 0.0390625 " clip-rule="nonzero"/></clipPath><clipPath id="c1dc0967fe"><rect x="0" width="17" y="0" height="16"/></clipPath><clipPath id="dcdd5878b1"><path d="M 201.429688 166.363281 L 332.308594 166.363281 L 332.308594 182.136719 L 201.429688 182.136719 Z M 201.429688 166.363281 " clip-rule="nonzero"/></clipPath><clipPath id="82f05ce5c7"><path d="M 0.429688 0.363281 L 131.308594 0.363281 L 131.308594 16.136719 L 0.429688 16.136719 Z M 0.429688 0.363281 " clip-rule="nonzero"/></clipPath><clipPath id="15d40498a3"><rect x="0" width="132" y="0" height="17"/></clipPath><clipPath id="9e64898d91"><path d="M 200 174 L 217 174 L 217 192 L 200 192 Z M 200 174 " clip-rule="nonzero"/></clipPath><clipPath id="222b954e70"><path d="M 200.753906 190.839844 L 201.121094 174.1875 L 216.738281 174.535156 L 216.367188 191.183594 Z M 200.753906 190.839844 " clip-rule="nonzero"/></clipPath><clipPath id="52a89bf24e"><path d="M 200.9375 182.542969 L 216.734375 174.589844 L 216.367188 191.183594 Z M 200.9375 182.542969 " clip-rule="nonzero"/></clipPath><clipPath id="4e548bf098"><path d="M 0.898438 0.425781 L 16.949219 0.425781 L 16.949219 17.195312 L 0.898438 17.195312 Z M 0.898438 0.425781 " clip-rule="nonzero"/></clipPath><clipPath id="ccb99a6033"><path d="M 0.753906 16.839844 L 1.121094 0.1875 L 16.738281 0.535156 L 16.367188 17.183594 Z M 0.753906 16.839844 " clip-rule="nonzero"/></clipPath><clipPath id="3879a7905b"><path d="M 0.9375 8.542969 L 16.734375 0.589844 L 16.367188 17.183594 Z M 0.9375 8.542969 " clip-rule="nonzero"/></clipPath><clipPath id="98311e4822"><rect x="0" width="17" y="0" height="18"/></clipPath><clipPath id="0b66418296"><path d="M 333 301.78125 L 614 301.78125 L 614 326.492188 L 333 326.492188 Z M 333 301.78125 " clip-rule="nonzero"/></clipPath></defs><g clip-path="url(#3da216a8a2)"><g transform="matrix(1, 0, 0, 1, 51, 244)"><g clip-path="url(#44e10af2f7)"><g clip-path="url(#a5a3399f60)"><path fill="#035440" d="M 0.207031 0.320312 L 15.976562 0.320312 L 15.976562 108.691406 L 0.207031 108.691406 Z M 0.207031 0.320312 " fill-opacity="1" fill-rule="nonzero"/></g></g></g></g><g clip-path="url(#c070280858)"><g transform="matrix(1, 0, 0, 1, 249, 244)"><g clip-path="url(#07f26bcb44)"><g clip-path="url(#f7b2a94c3b)"><path fill="#035440" d="M 0.5625 0.320312 L 16.332031 0.320312 L 16.332031 108.691406 L 0.5625 108.691406 Z M 0.5625 0.320312 " fill-opacity="1" fill-rule="nonzero"/></g></g></g></g><g clip-path="url(#6b1807b147)"><g transform="matrix(1, 0, 0, 1, 185, 298)"><g clip-path="url(#8c92ebc124)"><g clip-path="url(#1b06ebd0be)"><path fill="#035440" d="M 0.660156 0.511719 L 16.429688 0.511719 L 16.429688 54.730469 L 0.660156 54.730469 Z M 0.660156 0.511719 " fill-opacity="1" fill-rule="nonzero"/></g></g></g></g><g clip-path="url(#b384e9d067)"><g transform="matrix(1, 0, 0, 1, 115, 298)"><g clip-path="url(#ebe5f1b19a)"><g clip-path="url(#21dae195cf)"><path fill="#035440" d="M 0.105469 0.511719 L 15.878906 0.511719 L 15.878906 54.730469 L 0.105469 54.730469 Z M 0.105469 0.511719 " fill-opacity="1" fill-rule="nonzero"/></g></g></g></g><g clip-path="url(#968b3a15bf)"><g clip-path="url(#5bd4494a71)"><g transform="matrix(1, 0, 0, 1, 152, 184)"><g clip-path="url(#86056c5bde)"><g clip-path="url(#dd3dd06ef2)"><g clip-path="url(#f6e45fb95d)"><path fill="#035440" d="M 113.332031 61.398438 L 105.390625 75.027344 L 0.148438 13.707031 L 8.089844 0.078125 Z M 113.332031 61.398438 " fill-opacity="1" fill-rule="nonzero"/></g></g></g></g></g></g><g clip-path="url(#5008eb962d)"><g clip-path="url(#25dc0b4031)"><g transform="matrix(1, 0, 0, 1, 51, 184)"><g clip-path="url(#2c6e0467c9)"><g clip-path="url(#f3c6fb373c)"><g clip-path="url(#f9362aad03)"><path fill="#035440" d="M 110.019531 0.0859375 L 117.695312 13.863281 L 7.890625 75.015625 L 0.214844 61.238281 Z M 110.019531 0.0859375 " fill-opacity="1" fill-rule="nonzero"/></g></g></g></g></g></g><g clip-path="url(#5697bee1aa)"><g transform="matrix(1, 0, 0, 1, 115, 282)"><g clip-path="url(#6cd5e327a5)"><g clip-path="url(#234cc0825d)"><path fill="#035440" d="M 86.425781 0.738281 L 86.425781 16.507812 L 0.109375 16.507812 L 0.109375 0.738281 Z M 86.425781 0.738281 " fill-opacity="1" fill-rule="nonzero"/></g></g></g></g><g clip-path="url(#396125909a)"><g transform="matrix(1, 0, 0, 1, 51, 344)"><g clip-path="url(#be0f792c23)"><g clip-path="url(#52e7ba8634)"><path fill="#035440" d="M 79.875 0.820312 L 79.875 16.589844 L 0.214844 16.589844 L 0.214844 0.820312 Z M 79.875 0.820312 " fill-opacity="1" fill-rule="nonzero"/></g></g></g></g><g clip-path="url(#e4b4fc7d1d)"><g transform="matrix(1, 0, 0, 1, 185, 344)"><g clip-path="url(#1a67ac5691)"><g clip-path="url(#a6d0f1c068)"><path fill="#035440" d="M 80.332031 0.820312 L 80.332031 16.589844 L 0.667969 16.589844 L 0.667969 0.820312 Z M 80.332031 0.820312 " fill-opacity="1" fill-rule="nonzero"/></g></g></g></g><g clip-path="url(#f9cfd23eac)"><g transform="matrix(1, 0, 0, 1, 316, 166)"><g clip-path="url(#8c07cca5ca)"><g clip-path="url(#928fa9023e)"><path fill="#035440" d="M 0.535156 0.363281 L 16.308594 0.363281 L 16.308594 194.621094 L 0.535156 194.621094 Z M 0.535156 0.363281 " fill-opacity="1" fill-rule="nonzero"/></g></g></g></g><g clip-path="url(#e939d9b853)"><g transform="matrix(1, 0, 0, 1, 282, 344)"><g clip-path="url(#d5e36ca7d2)"><g clip-path="url(#2a5bac2bb0)"><path fill="#035440" d="M 50.304688 0.816406 L 50.304688 16.589844 L 0.769531 16.589844 L 0.769531 0.816406 Z M 50.304688 0.816406 " fill-opacity="1" fill-rule="nonzero"/></g></g></g></g><g clip-path="url(#d25105b49f)"><g transform="matrix(1, 0, 0, 1, 286, 309)"><g clip-path="url(#163f0bcf89)"><g clip-path="url(#54e5464e3d)"><path fill="#035440" d="M 16.277344 0.835938 L 16.277344 16.609375 L 0.320312 16.609375 L 0.320312 0.835938 Z M 16.277344 0.835938 " fill-opacity="1" fill-rule="nonzero"/></g></g></g></g><g clip-path="url(#9e3e2c3840)"><g transform="matrix(1, 0, 0, 1, 286, 259)"><g clip-path="url(#880be7cd20)"><g clip-path="url(#38f80c48f6)"><path fill="#035440" d="M 16.277344 0.03125 L 16.277344 15.800781 L 0.320312 15.800781 L 0.320312 0.03125 Z M 16.277344 0.03125 " fill-opacity="1" fill-rule="nonzero"/></g></g></g></g><g clip-path="url(#85045a985f)"><g transform="matrix(1, 0, 0, 1, 286, 203)"><g clip-path="url(#c1dc0967fe)"><g clip-path="url(#0686388543)"><path fill="#035440" d="M 16.277344 0.0390625 L 16.277344 15.8125 L 0.320312 15.8125 L 0.320312 0.0390625 Z M 16.277344 0.0390625 " fill-opacity="1" fill-rule="nonzero"/></g></g></g></g><g clip-path="url(#dcdd5878b1)"><g transform="matrix(1, 0, 0, 1, 201, 166)"><g clip-path="url(#15d40498a3)"><g clip-path="url(#82f05ce5c7)"><path fill="#035440" d="M 131.308594 0.363281 L 131.308594 16.136719 L 0.445312 16.136719 L 0.445312 0.363281 Z M 131.308594 0.363281 " fill-opacity="1" fill-rule="nonzero"/></g></g></g></g><g clip-path="url(#9e64898d91)"><g clip-path="url(#222b954e70)"><g clip-path="url(#52a89bf24e)"><g transform="matrix(1, 0, 0, 1, 200, 174)"><g clip-path="url(#98311e4822)"><g clip-path="url(#4e548bf098)"><g clip-path="url(#ccb99a6033)"><g clip-path="url(#3879a7905b)"><path fill="#035440" d="M 0.753906 16.839844 L 1.121094 0.246094 L 16.734375 0.59375 L 16.367188 17.183594 Z M 0.753906 16.839844 " fill-opacity="1" fill-rule="nonzero"/></g></g></g></g></g></g></g></g><g fill="#035440" fill-opacity="1"><g transform="translate(340.630168, 280.324472)"><g><path d="M 3.71875 -51.0625 L 22.34375 -51.0625 C 27.539062 -51.0625 31.75 -49.71875 34.96875 -47.03125 C 38.1875 -44.351562 39.796875 -40.457031 39.796875 -35.34375 C 39.796875 -30.226562 38.164062 -26.210938 34.90625 -23.296875 C 31.644531 -20.390625 27.457031 -18.9375 22.34375 -18.9375 L 15.34375 -18.9375 L 15.34375 0 L 3.71875 0 Z M 15.34375 -28.21875 L 18.625 -28.21875 C 21.226562 -28.21875 23.363281 -28.742188 25.03125 -29.796875 C 26.707031 -30.847656 27.546875 -32.570312 27.546875 -34.96875 C 27.546875 -37.40625 26.707031 -39.148438 25.03125 -40.203125 C 23.363281 -41.253906 21.226562 -41.78125 18.625 -41.78125 L 15.34375 -41.78125 Z M 15.34375 -28.21875 "/></g></g></g><g fill="#035440" fill-opacity="1"><g transform="translate(380.299917, 280.324472)"><g><path d="M 3.71875 0 L 3.71875 -31.75 L 14.671875 -31.75 L 14.671875 -27.171875 L 14.796875 -27.171875 C 14.878906 -27.335938 15.007812 -27.539062 15.1875 -27.78125 C 15.375 -28.03125 15.773438 -28.460938 16.390625 -29.078125 C 17.015625 -29.703125 17.675781 -30.257812 18.375 -30.75 C 19.082031 -31.25 19.992188 -31.691406 21.109375 -32.078125 C 22.222656 -32.472656 23.359375 -32.671875 24.515625 -32.671875 C 25.703125 -32.671875 26.875 -32.503906 28.03125 -32.171875 C 29.1875 -31.847656 30.035156 -31.519531 30.578125 -31.1875 L 31.4375 -30.703125 L 26.859375 -21.421875 C 25.492188 -22.566406 23.597656 -23.140625 21.171875 -23.140625 C 19.847656 -23.140625 18.710938 -22.851562 17.765625 -22.28125 C 16.816406 -21.707031 16.144531 -21.003906 15.75 -20.171875 C 15.351562 -19.347656 15.070312 -18.644531 14.90625 -18.0625 C 14.75 -17.488281 14.671875 -17.035156 14.671875 -16.703125 L 14.671875 0 Z M 3.71875 0 "/></g></g></g><g fill="#035440" fill-opacity="1"><g transform="translate(410.748502, 280.324472)"><g><path d="M 6.703125 -3.78125 C 3.179688 -6.914062 1.421875 -10.9375 1.421875 -15.84375 C 1.421875 -20.75 3.253906 -24.78125 6.921875 -27.9375 C 10.597656 -31.09375 15.140625 -32.671875 20.546875 -32.671875 C 25.867188 -32.671875 30.351562 -31.082031 34 -27.90625 C 37.65625 -24.726562 39.484375 -20.707031 39.484375 -15.84375 C 39.484375 -10.976562 37.695312 -6.96875 34.125 -3.8125 C 30.5625 -0.65625 26.035156 0.921875 20.546875 0.921875 C 14.847656 0.921875 10.234375 -0.644531 6.703125 -3.78125 Z M 15.1875 -21.21875 C 13.769531 -19.820312 13.0625 -18.03125 13.0625 -15.84375 C 13.0625 -13.65625 13.738281 -11.867188 15.09375 -10.484375 C 16.457031 -9.109375 18.253906 -8.421875 20.484375 -8.421875 C 22.628906 -8.421875 24.390625 -9.117188 25.765625 -10.515625 C 27.148438 -11.921875 27.84375 -13.695312 27.84375 -15.84375 C 27.84375 -18.03125 27.128906 -19.820312 25.703125 -21.21875 C 24.285156 -22.625 22.546875 -23.328125 20.484375 -23.328125 C 18.378906 -23.328125 16.613281 -22.625 15.1875 -21.21875 Z M 15.1875 -21.21875 "/></g></g></g><g fill="#035440" fill-opacity="1"><g transform="translate(451.532291, 280.324472)"><g><path d="M 36.390625 -27.8125 C 39.359375 -24.582031 40.84375 -20.613281 40.84375 -15.90625 C 40.84375 -11.195312 39.359375 -7.210938 36.390625 -3.953125 C 33.421875 -0.703125 29.644531 0.921875 25.0625 0.921875 C 20.851562 0.921875 17.390625 -0.394531 14.671875 -3.03125 L 14.671875 16.09375 L 3.71875 16.09375 L 3.71875 -31.75 L 14.546875 -31.75 L 14.546875 -28.15625 L 14.671875 -28.15625 C 17.390625 -31.164062 20.851562 -32.671875 25.0625 -32.671875 C 29.644531 -32.671875 33.421875 -31.050781 36.390625 -27.8125 Z M 27.078125 -10.515625 C 28.503906 -11.921875 29.21875 -13.71875 29.21875 -15.90625 C 29.21875 -18.09375 28.535156 -19.875 27.171875 -21.25 C 25.804688 -22.632812 24.007812 -23.328125 21.78125 -23.328125 C 19.632812 -23.328125 17.867188 -22.625 16.484375 -21.21875 C 15.109375 -19.820312 14.421875 -18.050781 14.421875 -15.90625 C 14.421875 -13.71875 15.128906 -11.921875 16.546875 -10.515625 C 17.972656 -9.117188 19.71875 -8.421875 21.78125 -8.421875 C 23.882812 -8.421875 25.648438 -9.117188 27.078125 -10.515625 Z M 27.078125 -10.515625 "/></g></g></g><g fill="#035440" fill-opacity="1"><g transform="translate(493.801379, 280.324472)"><g><path d="M 3.71875 0 L 3.71875 -53.21875 L 14.671875 -53.21875 L 14.671875 0 Z M 3.71875 0 "/></g></g></g><g fill="#035440" fill-opacity="1"><g transform="translate(512.181933, 280.324472)"><g><path d="M 4.765625 -49.453125 C 6.046875 -50.734375 7.570312 -51.375 9.34375 -51.375 C 11.113281 -51.375 12.640625 -50.734375 13.921875 -49.453125 C 15.203125 -48.171875 15.84375 -46.640625 15.84375 -44.859375 C 15.84375 -43.085938 15.203125 -41.5625 13.921875 -40.28125 C 12.640625 -39.007812 11.113281 -38.375 9.34375 -38.375 C 7.570312 -38.375 6.046875 -39.007812 4.765625 -40.28125 C 3.484375 -41.5625 2.84375 -43.085938 2.84375 -44.859375 C 2.84375 -46.640625 3.484375 -48.171875 4.765625 -49.453125 Z M 3.71875 -31.75 L 3.71875 0 L 14.671875 0 L 14.671875 -31.75 Z M 3.71875 -31.75 "/></g></g></g><g fill="#035440" fill-opacity="1"><g transform="translate(530.871926, 280.324472)"><g><path d="M 5.5625 -31.75 L 5.5625 -43.578125 L 16.53125 -43.578125 L 16.53125 -31.75 L 23.203125 -31.75 L 23.203125 -23.390625 L 16.53125 -23.390625 L 16.53125 -13.3125 C 16.53125 -10.375 17.351562 -8.90625 19 -8.90625 C 19.414062 -8.90625 19.847656 -8.988281 20.296875 -9.15625 C 20.753906 -9.320312 21.109375 -9.488281 21.359375 -9.65625 L 21.71875 -9.90625 L 24.453125 -1.046875 C 22.097656 0.265625 19.414062 0.921875 16.40625 0.921875 C 14.34375 0.921875 12.566406 0.5625 11.078125 -0.15625 C 9.585938 -0.875 8.460938 -1.84375 7.703125 -3.0625 C 6.941406 -4.28125 6.394531 -5.554688 6.0625 -6.890625 C 5.726562 -8.234375 5.5625 -9.671875 5.5625 -11.203125 L 5.5625 -23.390625 L 0.984375 -23.390625 L 0.984375 -31.75 Z M 5.5625 -31.75 "/></g></g></g><g fill="#035440" fill-opacity="1"><g transform="translate(555.317451, 280.324472)"><g><path d="M 27.78125 -31.75 L 40.421875 -31.75 L 15.46875 16.09375 L 2.84375 16.09375 L 13.796875 -4.953125 L -1.234375 -31.75 L 11.390625 -31.75 L 20.234375 -15.46875 Z M 27.78125 -31.75 "/></g></g></g><g clip-path="url(#0b66418296)"><path fill="#035440" d="M 519.667969 301.796875 C 523.746094 301.804688 527.820312 301.851562 531.894531 301.941406 C 546.324219 302.261719 560.738281 303.117188 575.105469 304.5 C 575.867188 304.574219 576.515625 305.089844 576.515625 305.910156 C 576.515625 306.621094 575.867188 307.394531 575.105469 307.324219 C 571.050781 306.933594 566.996094 306.582031 562.933594 306.277344 C 548.539062 305.191406 534.105469 304.640625 519.667969 304.617188 C 517.851562 304.617188 517.855469 301.792969 519.667969 301.796875 Z M 612.296875 316.644531 C 584.683594 315.5 557.046875 314.855469 529.40625 314.71875 C 501.765625 314.582031 408.539062 314.335938 380.914062 315.207031 C 365.410156 315.695312 349.914062 316.34375 334.421875 317.148438 C 332.617188 317.242188 332.605469 320.066406 334.421875 319.972656 C 362.023438 318.535156 389.648438 317.601562 417.285156 317.171875 C 444.921875 316.742188 538.152344 317.433594 565.789062 318.011719 C 581.296875 318.339844 596.800781 318.824219 612.296875 319.464844 C 614.113281 319.542969 614.109375 316.71875 612.296875 316.644531 Z M 391.574219 323.894531 C 382.742188 323.316406 373.886719 323.136719 365.039062 323.355469 C 363.226562 323.398438 363.21875 326.222656 365.039062 326.175781 C 373.886719 325.957031 382.742188 326.136719 391.574219 326.71875 C 393.386719 326.835938 393.382812 324.015625 391.574219 323.894531 Z M 391.574219 323.894531 " fill-opacity="1" fill-rule="nonzero"/></g></svg>