<svg xmlns="http://www.w3.org/2000/svg" xmlns:xlink="http://www.w3.org/1999/xlink" width="940" zoomAndPan="magnify" viewBox="0 0 705 591.000005" height="788" preserveAspectRatio="xMidYMid meet" version="1.0"><defs><g/><clipPath id="e952dfffe7"><path d="M 0.179688 41.210938 L 8.46875 41.210938 L 8.46875 98.164062 L 0.179688 98.164062 Z M 0.179688 41.210938 " clip-rule="nonzero"/></clipPath><clipPath id="9eb69c287a"><path d="M 0.179688 0.210938 L 8.46875 0.210938 L 8.46875 57.164062 L 0.179688 57.164062 Z M 0.179688 0.210938 " clip-rule="nonzero"/></clipPath><clipPath id="f7e983f04f"><rect x="0" width="9" y="0" height="58"/></clipPath><clipPath id="28492c21bd"><path d="M 104.410156 41.210938 L 112.699219 41.210938 L 112.699219 98.164062 L 104.410156 98.164062 Z M 104.410156 41.210938 " clip-rule="nonzero"/></clipPath><clipPath id="126b31ace4"><path d="M 0.410156 0.210938 L 8.699219 0.210938 L 8.699219 57.164062 L 0.410156 57.164062 Z M 0.410156 0.210938 " clip-rule="nonzero"/></clipPath><clipPath id="ec6dbb0bc6"><rect x="0" width="9" y="0" height="58"/></clipPath><clipPath id="0599aa27f0"><path d="M 70.832031 69.6875 L 79.121094 69.6875 L 79.121094 98.164062 L 70.832031 98.164062 Z M 70.832031 69.6875 " clip-rule="nonzero"/></clipPath><clipPath id="4ee7428fca"><path d="M 0.832031 0.6875 L 9.121094 0.6875 L 9.121094 29.164062 L 0.832031 29.164062 Z M 0.832031 0.6875 " clip-rule="nonzero"/></clipPath><clipPath id="bbcdf3e96f"><rect x="0" width="10" y="0" height="30"/></clipPath><clipPath id="0e7912ebd6"><path d="M 33.757812 69.6875 L 42.046875 69.6875 L 42.046875 98.164062 L 33.757812 98.164062 Z M 33.757812 69.6875 " clip-rule="nonzero"/></clipPath><clipPath id="b6cbdb94b9"><path d="M 0.757812 0.6875 L 9.046875 0.6875 L 9.046875 29.164062 L 0.757812 29.164062 Z M 0.757812 0.6875 " clip-rule="nonzero"/></clipPath><clipPath id="1f741f8058"><rect x="0" width="10" y="0" height="30"/></clipPath><clipPath id="5811f62274"><path d="M 53 9 L 113 9 L 113 49 L 53 49 Z M 53 9 " clip-rule="nonzero"/></clipPath><clipPath id="d87810d9a0"><path d="M 112.695312 41.777344 L 108.523438 48.9375 L 53.230469 16.71875 L 57.402344 9.558594 Z M 112.695312 41.777344 " clip-rule="nonzero"/></clipPath><clipPath id="0dc1e7a4a6"><path d="M 0.0625 0.542969 L 59.71875 0.542969 L 59.71875 40 L 0.0625 40 Z M 0.0625 0.542969 " clip-rule="nonzero"/></clipPath><clipPath id="ff103b408f"><path d="M 59.695312 32.777344 L 55.523438 39.9375 L 0.230469 7.71875 L 4.402344 0.558594 Z M 59.695312 32.777344 " clip-rule="nonzero"/></clipPath><clipPath id="daf9d3eb44"><rect x="0" width="60" y="0" height="40"/></clipPath><clipPath id="59cb1776a1"><path d="M 0.109375 9 L 62 9 L 62 49 L 0.109375 49 Z M 0.109375 9 " clip-rule="nonzero"/></clipPath><clipPath id="a6ce57f2b7"><path d="M 57.882812 9.558594 L 61.917969 16.796875 L 4.210938 48.9375 L 0.175781 41.695312 Z M 57.882812 9.558594 " clip-rule="nonzero"/></clipPath><clipPath id="cb7f948712"><path d="M 0.109375 0.542969 L 61.925781 0.542969 L 61.925781 40 L 0.109375 40 Z M 0.109375 0.542969 " clip-rule="nonzero"/></clipPath><clipPath id="ee9ee51e9d"><path d="M 57.882812 0.558594 L 61.917969 7.796875 L 4.210938 39.9375 L 0.175781 32.695312 Z M 57.882812 0.558594 " clip-rule="nonzero"/></clipPath><clipPath id="a0456d7a9d"><rect x="0" width="62" y="0" height="40"/></clipPath><clipPath id="03759aa22d"><path d="M 33.753906 61.398438 L 79.117188 61.398438 L 79.117188 69.683594 L 33.753906 69.683594 Z M 33.753906 61.398438 " clip-rule="nonzero"/></clipPath><clipPath id="6975fbc984"><path d="M 0.753906 0.398438 L 46.117188 0.398438 L 46.117188 8.683594 L 0.753906 8.683594 Z M 0.753906 0.398438 " clip-rule="nonzero"/></clipPath><clipPath id="d4a1e66d4f"><rect x="0" width="47" y="0" height="9"/></clipPath><clipPath id="7eca0b9716"><path d="M 0.175781 94.019531 L 42.042969 94.019531 L 42.042969 102.308594 L 0.175781 102.308594 Z M 0.175781 94.019531 " clip-rule="nonzero"/></clipPath><clipPath id="8d83b635e3"><path d="M 0.175781 0.0195312 L 42.042969 0.0195312 L 42.042969 8.308594 L 0.175781 8.308594 Z M 0.175781 0.0195312 " clip-rule="nonzero"/></clipPath><clipPath id="8864dbeef1"><rect x="0" width="43" y="0" height="9"/></clipPath><clipPath id="602bd6e06b"><path d="M 70.828125 94.019531 L 112.695312 94.019531 L 112.695312 102.308594 L 70.828125 102.308594 Z M 70.828125 94.019531 " clip-rule="nonzero"/></clipPath><clipPath id="291eab3b9e"><path d="M 0.828125 0.0195312 L 42.695312 0.0195312 L 42.695312 8.308594 L 0.828125 8.308594 Z M 0.828125 0.0195312 " clip-rule="nonzero"/></clipPath><clipPath id="fee8f3d767"><rect x="0" width="43" y="0" height="9"/></clipPath><clipPath id="54c84b3adf"><path d="M 139.605469 0.246094 L 147.894531 0.246094 L 147.894531 102.308594 L 139.605469 102.308594 Z M 139.605469 0.246094 " clip-rule="nonzero"/></clipPath><clipPath id="ee66490027"><path d="M 0.605469 0.246094 L 8.894531 0.246094 L 8.894531 102.308594 L 0.605469 102.308594 Z M 0.605469 0.246094 " clip-rule="nonzero"/></clipPath><clipPath id="bcd766a47f"><rect x="0" width="9" y="0" height="103"/></clipPath><clipPath id="843e8bd5a7"><path d="M 121.867188 94.019531 L 147.890625 94.019531 L 147.890625 102.304688 L 121.867188 102.304688 Z M 121.867188 94.019531 " clip-rule="nonzero"/></clipPath><clipPath id="fa85de734b"><path d="M 0.867188 0.0195312 L 26.890625 0.0195312 L 26.890625 8.304688 L 0.867188 8.304688 Z M 0.867188 0.0195312 " clip-rule="nonzero"/></clipPath><clipPath id="93ddb3e3fa"><rect x="0" width="27" y="0" height="9"/></clipPath><clipPath id="f1e39d6783"><path d="M 123.714844 75.636719 L 132.113281 75.636719 L 132.113281 83.925781 L 123.714844 83.925781 Z M 123.714844 75.636719 " clip-rule="nonzero"/></clipPath><clipPath id="596353a884"><path d="M 0.714844 0.636719 L 9.113281 0.636719 L 9.113281 8.925781 L 0.714844 8.925781 Z M 0.714844 0.636719 " clip-rule="nonzero"/></clipPath><clipPath id="d0c505f8ff"><rect x="0" width="10" y="0" height="9"/></clipPath><clipPath id="f665b654c3"><path d="M 123.714844 48.941406 L 132.113281 48.941406 L 132.113281 57.226562 L 123.714844 57.226562 Z M 123.714844 48.941406 " clip-rule="nonzero"/></clipPath><clipPath id="d79251a288"><path d="M 0.714844 0.941406 L 9.113281 0.941406 L 9.113281 9.226562 L 0.714844 9.226562 Z M 0.714844 0.941406 " clip-rule="nonzero"/></clipPath><clipPath id="c67631c5e2"><rect x="0" width="10" y="0" height="10"/></clipPath><clipPath id="d4507f8609"><path d="M 123.714844 19.519531 L 132.113281 19.519531 L 132.113281 27.804688 L 123.714844 27.804688 Z M 123.714844 19.519531 " clip-rule="nonzero"/></clipPath><clipPath id="756153b332"><path d="M 0.714844 0.519531 L 9.113281 0.519531 L 9.113281 8.804688 L 0.714844 8.804688 Z M 0.714844 0.519531 " clip-rule="nonzero"/></clipPath><clipPath id="a05b167fc2"><rect x="0" width="10" y="0" height="9"/></clipPath><clipPath id="5cb2fa4698"><path d="M 79.117188 0.246094 L 147.890625 0.246094 L 147.890625 8.535156 L 79.117188 8.535156 Z M 79.117188 0.246094 " clip-rule="nonzero"/></clipPath><clipPath id="e22ba1d3ac"><path d="M 0.117188 0.246094 L 68.890625 0.246094 L 68.890625 8.535156 L 0.117188 8.535156 Z M 0.117188 0.246094 " clip-rule="nonzero"/></clipPath><clipPath id="c237e27709"><rect x="0" width="69" y="0" height="9"/></clipPath><clipPath id="9eae5b82f0"><path d="M 78 4 L 88 4 L 88 14 L 78 14 Z M 78 4 " clip-rule="nonzero"/></clipPath><clipPath id="7ca1766c1b"><path d="M 78.761719 13.105469 L 78.957031 4.355469 L 87.160156 4.539062 L 86.96875 13.289062 Z M 78.761719 13.105469 " clip-rule="nonzero"/></clipPath><clipPath id="c67cdcd7b2"><path d="M 78.859375 8.746094 L 87.160156 4.570312 L 86.96875 13.289062 Z M 78.859375 8.746094 " clip-rule="nonzero"/></clipPath><clipPath id="b150da5230"><path d="M 0.699219 0.511719 L 9.324219 0.511719 L 9.324219 9.375 L 0.699219 9.375 Z M 0.699219 0.511719 " clip-rule="nonzero"/></clipPath><clipPath id="825e9a065f"><path d="M 0.761719 9.105469 L 0.957031 0.355469 L 9.160156 0.539062 L 8.96875 9.289062 Z M 0.761719 9.105469 " clip-rule="nonzero"/></clipPath><clipPath id="eadfea4922"><path d="M 0.859375 4.746094 L 9.160156 0.570312 L 8.96875 9.289062 Z M 0.859375 4.746094 " clip-rule="nonzero"/></clipPath><clipPath id="1943be31ff"><rect x="0" width="10" y="0" height="10"/></clipPath><clipPath id="32146b3307"><rect x="0" width="148" y="0" height="103"/></clipPath><clipPath id="ccb09351a5"><path d="M 252 28 L 301.871094 28 L 301.871094 85 L 252 85 Z M 252 28 " clip-rule="nonzero"/></clipPath><clipPath id="bd5957f7d0"><rect x="0" width="302" y="0" height="92"/></clipPath><clipPath id="099fc5d7c5"><path d="M 261 325.859375 L 562.371094 325.859375 L 562.371094 352.816406 L 261 352.816406 Z M 261 325.859375 " clip-rule="nonzero"/></clipPath></defs><g transform="matrix(1, 0, 0, 1, 98, 237)"><g clip-path="url(#32146b3307)"><g clip-path="url(#e952dfffe7)"><g transform="matrix(1, 0, 0, 1, 0, 41)"><g clip-path="url(#f7e983f04f)"><g clip-path="url(#9eb69c287a)"><path fill="#035440" d="M 0.179688 0.210938 L 8.46875 0.210938 L 8.46875 57.15625 L 0.179688 57.15625 Z M 0.179688 0.210938 " fill-opacity="1" fill-rule="nonzero"/></g></g></g></g><g clip-path="url(#28492c21bd)"><g transform="matrix(1, 0, 0, 1, 104, 41)"><g clip-path="url(#ec6dbb0bc6)"><g clip-path="url(#126b31ace4)"><path fill="#035440" d="M 0.410156 0.210938 L 8.699219 0.210938 L 8.699219 57.15625 L 0.410156 57.15625 Z M 0.410156 0.210938 " fill-opacity="1" fill-rule="nonzero"/></g></g></g></g><g clip-path="url(#0599aa27f0)"><g transform="matrix(1, 0, 0, 1, 70, 69)"><g clip-path="url(#bbcdf3e96f)"><g clip-path="url(#4ee7428fca)"><path fill="#035440" d="M 0.832031 0.6875 L 9.121094 0.6875 L 9.121094 29.175781 L 0.832031 29.175781 Z M 0.832031 0.6875 " fill-opacity="1" fill-rule="nonzero"/></g></g></g></g><g clip-path="url(#0e7912ebd6)"><g transform="matrix(1, 0, 0, 1, 33, 69)"><g clip-path="url(#1f741f8058)"><g clip-path="url(#b6cbdb94b9)"><path fill="#035440" d="M 0.757812 0.6875 L 9.046875 0.6875 L 9.046875 29.175781 L 0.757812 29.175781 Z M 0.757812 0.6875 " fill-opacity="1" fill-rule="nonzero"/></g></g></g></g><g clip-path="url(#5811f62274)"><g clip-path="url(#d87810d9a0)"><g transform="matrix(1, 0, 0, 1, 53, 9)"><g clip-path="url(#daf9d3eb44)"><g clip-path="url(#0dc1e7a4a6)"><g clip-path="url(#ff103b408f)"><path fill="#035440" d="M 59.695312 32.777344 L 55.523438 39.9375 L 0.222656 7.714844 L 4.394531 0.554688 Z M 59.695312 32.777344 " fill-opacity="1" fill-rule="nonzero"/></g></g></g></g></g></g><g clip-path="url(#59cb1776a1)"><g clip-path="url(#a6ce57f2b7)"><g transform="matrix(1, 0, 0, 1, 0, 9)"><g clip-path="url(#a0456d7a9d)"><g clip-path="url(#cb7f948712)"><g clip-path="url(#ee9ee51e9d)"><path fill="#035440" d="M 57.882812 0.558594 L 61.917969 7.796875 L 4.21875 39.933594 L 0.183594 32.691406 Z M 57.882812 0.558594 " fill-opacity="1" fill-rule="nonzero"/></g></g></g></g></g></g><g clip-path="url(#03759aa22d)"><g transform="matrix(1, 0, 0, 1, 33, 61)"><g clip-path="url(#d4a1e66d4f)"><g clip-path="url(#6975fbc984)"><path fill="#035440" d="M 46.117188 0.398438 L 46.117188 8.683594 L 0.757812 8.683594 L 0.757812 0.398438 Z M 46.117188 0.398438 " fill-opacity="1" fill-rule="nonzero"/></g></g></g></g><g clip-path="url(#7eca0b9716)"><g transform="matrix(1, 0, 0, 1, 0, 94)"><g clip-path="url(#8864dbeef1)"><g clip-path="url(#8d83b635e3)"><path fill="#035440" d="M 42.042969 0.0195312 L 42.042969 8.308594 L 0.183594 8.308594 L 0.183594 0.0195312 Z M 42.042969 0.0195312 " fill-opacity="1" fill-rule="nonzero"/></g></g></g></g><g clip-path="url(#602bd6e06b)"><g transform="matrix(1, 0, 0, 1, 70, 94)"><g clip-path="url(#fee8f3d767)"><g clip-path="url(#291eab3b9e)"><path fill="#035440" d="M 42.695312 0.0195312 L 42.695312 8.308594 L 0.835938 8.308594 L 0.835938 0.0195312 Z M 42.695312 0.0195312 " fill-opacity="1" fill-rule="nonzero"/></g></g></g></g><g clip-path="url(#54c84b3adf)"><g transform="matrix(1, 0, 0, 1, 139, -0.000000000000113687)"><g clip-path="url(#bcd766a47f)"><g clip-path="url(#ee66490027)"><path fill="#035440" d="M 0.605469 0.246094 L 8.894531 0.246094 L 8.894531 102.324219 L 0.605469 102.324219 Z M 0.605469 0.246094 " fill-opacity="1" fill-rule="nonzero"/></g></g></g></g><g clip-path="url(#843e8bd5a7)"><g transform="matrix(1, 0, 0, 1, 121, 94)"><g clip-path="url(#93ddb3e3fa)"><g clip-path="url(#fa85de734b)"><path fill="#035440" d="M 26.890625 0.0195312 L 26.890625 8.304688 L 0.859375 8.304688 L 0.859375 0.0195312 Z M 26.890625 0.0195312 " fill-opacity="1" fill-rule="nonzero"/></g></g></g></g><g clip-path="url(#f1e39d6783)"><g transform="matrix(1, 0, 0, 1, 123, 75)"><g clip-path="url(#d0c505f8ff)"><g clip-path="url(#596353a884)"><path fill="#035440" d="M 9.113281 0.636719 L 9.113281 8.925781 L 0.726562 8.925781 L 0.726562 0.636719 Z M 9.113281 0.636719 " fill-opacity="1" fill-rule="nonzero"/></g></g></g></g><g clip-path="url(#f665b654c3)"><g transform="matrix(1, 0, 0, 1, 123, 48)"><g clip-path="url(#c67631c5e2)"><g clip-path="url(#d79251a288)"><path fill="#035440" d="M 9.113281 0.941406 L 9.113281 9.226562 L 0.726562 9.226562 L 0.726562 0.941406 Z M 9.113281 0.941406 " fill-opacity="1" fill-rule="nonzero"/></g></g></g></g><g clip-path="url(#d4507f8609)"><g transform="matrix(1, 0, 0, 1, 123, 19)"><g clip-path="url(#a05b167fc2)"><g clip-path="url(#756153b332)"><path fill="#035440" d="M 9.113281 0.519531 L 9.113281 8.804688 L 0.726562 8.804688 L 0.726562 0.519531 Z M 9.113281 0.519531 " fill-opacity="1" fill-rule="nonzero"/></g></g></g></g><g clip-path="url(#5cb2fa4698)"><g transform="matrix(1, 0, 0, 1, 79, -0.000000000000113687)"><g clip-path="url(#c237e27709)"><g clip-path="url(#e22ba1d3ac)"><path fill="#035440" d="M 68.890625 0.246094 L 68.890625 8.535156 L 0.128906 8.535156 L 0.128906 0.246094 Z M 68.890625 0.246094 " fill-opacity="1" fill-rule="nonzero"/></g></g></g></g><g clip-path="url(#9eae5b82f0)"><g clip-path="url(#7ca1766c1b)"><g clip-path="url(#c67cdcd7b2)"><g transform="matrix(1, 0, 0, 1, 78, 4)"><g clip-path="url(#1943be31ff)"><g clip-path="url(#b150da5230)"><g clip-path="url(#825e9a065f)"><g clip-path="url(#eadfea4922)"><path fill="#035440" d="M 0.761719 9.105469 L 0.957031 0.390625 L 9.160156 0.570312 L 8.96875 9.289062 Z M 0.761719 9.105469 " fill-opacity="1" fill-rule="nonzero"/></g></g></g></g></g></g></g></g></g></g><g transform="matrix(1, 0, 0, 1, 268, 235)"><g clip-path="url(#bd5957f7d0)"><g fill="#035440" fill-opacity="1"><g transform="translate(0.691016, 65.823475)"><g><path d="M 4.375 -60.1875 L 26.34375 -60.1875 C 32.46875 -60.1875 37.425781 -58.601562 41.21875 -55.4375 C 45.007812 -52.28125 46.90625 -47.6875 46.90625 -41.65625 C 46.90625 -35.625 44.984375 -30.894531 41.140625 -27.46875 C 37.296875 -24.039062 32.363281 -22.328125 26.34375 -22.328125 L 18.09375 -22.328125 L 18.09375 0 L 4.375 0 Z M 18.09375 -33.265625 L 21.953125 -33.265625 C 25.023438 -33.265625 27.546875 -33.882812 29.515625 -35.125 C 31.484375 -36.363281 32.46875 -38.394531 32.46875 -41.21875 C 32.46875 -44.082031 31.484375 -46.132812 29.515625 -47.375 C 27.546875 -48.625 25.023438 -49.25 21.953125 -49.25 L 18.09375 -49.25 Z M 18.09375 -33.265625 "/></g></g></g><g fill="#035440" fill-opacity="1"><g transform="translate(47.45409, 65.823475)"><g><path d="M 4.375 0 L 4.375 -37.421875 L 17.296875 -37.421875 L 17.296875 -32.03125 L 17.4375 -32.03125 C 17.53125 -32.21875 17.6875 -32.457031 17.90625 -32.75 C 18.125 -33.039062 18.597656 -33.550781 19.328125 -34.28125 C 20.054688 -35.007812 20.832031 -35.664062 21.65625 -36.25 C 22.488281 -36.84375 23.5625 -37.367188 24.875 -37.828125 C 26.1875 -38.285156 27.523438 -38.515625 28.890625 -38.515625 C 30.296875 -38.515625 31.679688 -38.320312 33.046875 -37.9375 C 34.410156 -37.550781 35.40625 -37.160156 36.03125 -36.765625 L 37.0625 -36.1875 L 31.65625 -25.234375 C 30.050781 -26.597656 27.816406 -27.28125 24.953125 -27.28125 C 23.390625 -27.28125 22.050781 -26.9375 20.9375 -26.25 C 19.820312 -25.570312 19.03125 -24.75 18.5625 -23.78125 C 18.101562 -22.8125 17.773438 -21.984375 17.578125 -21.296875 C 17.390625 -20.617188 17.296875 -20.085938 17.296875 -19.703125 L 17.296875 0 Z M 4.375 0 "/></g></g></g><g fill="#035440" fill-opacity="1"><g transform="translate(83.34717, 65.823475)"><g><path d="M 7.90625 -4.453125 C 3.75 -8.148438 1.671875 -12.890625 1.671875 -18.671875 C 1.671875 -24.460938 3.832031 -29.21875 8.15625 -32.9375 C 12.488281 -36.65625 17.84375 -38.515625 24.21875 -38.515625 C 30.488281 -38.515625 35.773438 -36.640625 40.078125 -32.890625 C 44.390625 -29.148438 46.546875 -24.410156 46.546875 -18.671875 C 46.546875 -12.929688 44.441406 -8.203125 40.234375 -4.484375 C 36.023438 -0.765625 30.6875 1.09375 24.21875 1.09375 C 17.507812 1.09375 12.070312 -0.753906 7.90625 -4.453125 Z M 17.90625 -25.015625 C 16.226562 -23.367188 15.390625 -21.253906 15.390625 -18.671875 C 15.390625 -16.097656 16.191406 -13.992188 17.796875 -12.359375 C 19.398438 -10.734375 21.515625 -9.921875 24.140625 -9.921875 C 26.671875 -9.921875 28.75 -10.742188 30.375 -12.390625 C 32.007812 -14.046875 32.828125 -16.140625 32.828125 -18.671875 C 32.828125 -21.253906 31.988281 -23.367188 30.3125 -25.015625 C 28.632812 -26.671875 26.578125 -27.5 24.140625 -27.5 C 21.660156 -27.5 19.582031 -26.671875 17.90625 -25.015625 Z M 17.90625 -25.015625 "/></g></g></g><g fill="#035440" fill-opacity="1"><g transform="translate(131.423486, 65.823475)"><g><path d="M 42.890625 -32.78125 C 46.398438 -28.96875 48.15625 -24.289062 48.15625 -18.75 C 48.15625 -13.207031 46.398438 -8.515625 42.890625 -4.671875 C 39.390625 -0.828125 34.941406 1.09375 29.546875 1.09375 C 24.585938 1.09375 20.503906 -0.460938 17.296875 -3.578125 L 17.296875 18.96875 L 4.375 18.96875 L 4.375 -37.421875 L 17.140625 -37.421875 L 17.140625 -33.1875 L 17.296875 -33.1875 C 20.503906 -36.738281 24.585938 -38.515625 29.546875 -38.515625 C 34.941406 -38.515625 39.390625 -36.601562 42.890625 -32.78125 Z M 31.921875 -12.390625 C 33.597656 -14.046875 34.4375 -16.160156 34.4375 -18.734375 C 34.4375 -21.316406 33.632812 -23.421875 32.03125 -25.046875 C 30.425781 -26.679688 28.304688 -27.5 25.671875 -27.5 C 23.148438 -27.5 21.070312 -26.671875 19.4375 -25.015625 C 17.8125 -23.367188 17 -21.28125 17 -18.75 C 17 -16.164062 17.835938 -14.046875 19.515625 -12.390625 C 21.191406 -10.742188 23.242188 -9.921875 25.671875 -9.921875 C 28.160156 -9.921875 30.242188 -10.742188 31.921875 -12.390625 Z M 31.921875 -12.390625 "/></g></g></g><g fill="#035440" fill-opacity="1"><g transform="translate(181.250685, 65.823475)"><g><path d="M 4.375 0 L 4.375 -62.734375 L 17.296875 -62.734375 L 17.296875 0 Z M 4.375 0 "/></g></g></g><g fill="#035440" fill-opacity="1"><g transform="translate(202.917856, 65.823475)"><g><path d="M 5.609375 -58.28125 C 7.117188 -59.789062 8.921875 -60.546875 11.015625 -60.546875 C 13.109375 -60.546875 14.90625 -59.789062 16.40625 -58.28125 C 17.914062 -56.78125 18.671875 -54.984375 18.671875 -52.890625 C 18.671875 -50.796875 17.914062 -48.992188 16.40625 -47.484375 C 14.90625 -45.984375 13.109375 -45.234375 11.015625 -45.234375 C 8.921875 -45.234375 7.117188 -45.984375 5.609375 -47.484375 C 4.109375 -48.992188 3.359375 -50.796875 3.359375 -52.890625 C 3.359375 -54.984375 4.109375 -56.78125 5.609375 -58.28125 Z M 4.375 -37.421875 L 4.375 0 L 17.296875 0 L 17.296875 -37.421875 Z M 4.375 -37.421875 "/></g></g></g><g fill="#035440" fill-opacity="1"><g transform="translate(224.949797, 65.823475)"><g><path d="M 6.5625 -37.421875 L 6.5625 -51.359375 L 19.484375 -51.359375 L 19.484375 -37.421875 L 27.359375 -37.421875 L 27.359375 -27.578125 L 19.484375 -27.578125 L 19.484375 -15.6875 C 19.484375 -12.226562 20.453125 -10.5 22.390625 -10.5 C 22.878906 -10.5 23.390625 -10.597656 23.921875 -10.796875 C 24.460938 -10.992188 24.878906 -11.1875 25.171875 -11.375 L 25.609375 -11.671875 L 28.8125 -1.234375 C 26.039062 0.316406 22.878906 1.09375 19.328125 1.09375 C 16.898438 1.09375 14.8125 0.671875 13.0625 -0.171875 C 11.3125 -1.023438 9.984375 -2.171875 9.078125 -3.609375 C 8.179688 -5.046875 7.535156 -6.550781 7.140625 -8.125 C 6.753906 -9.707031 6.5625 -11.398438 6.5625 -13.203125 L 6.5625 -27.578125 L 1.171875 -27.578125 L 1.171875 -37.421875 Z M 6.5625 -37.421875 "/></g></g></g><g clip-path="url(#ccb09351a5)"><g fill="#035440" fill-opacity="1"><g transform="translate(253.766412, 65.823475)"><g><path d="M 32.75 -37.421875 L 47.640625 -37.421875 L 18.234375 18.96875 L 3.359375 18.96875 L 16.265625 -5.84375 L -1.453125 -37.421875 L 13.421875 -37.421875 L 23.859375 -18.234375 Z M 32.75 -37.421875 "/></g></g></g></g></g></g><g clip-path="url(#099fc5d7c5)"><path fill="#035440" d="M 461.265625 325.882812 C 465.636719 325.886719 470.007812 325.9375 474.375 326.035156 C 489.847656 326.378906 505.308594 327.296875 520.714844 328.78125 C 521.53125 328.859375 522.226562 329.410156 522.226562 330.292969 C 522.226562 331.054688 521.527344 331.886719 520.714844 331.808594 C 516.367188 331.386719 512.015625 331.011719 507.660156 330.683594 C 492.226562 329.519531 476.746094 328.933594 461.265625 328.90625 C 459.316406 328.902344 459.320312 325.878906 461.265625 325.882812 Z M 560.597656 341.804688 C 530.984375 340.578125 501.347656 339.886719 471.707031 339.738281 C 442.066406 339.589844 342.097656 339.328125 312.472656 340.261719 C 295.847656 340.785156 279.226562 341.480469 262.617188 342.34375 C 260.679688 342.445312 260.667969 345.472656 262.617188 345.371094 C 292.214844 343.832031 321.839844 342.828125 351.476562 342.367188 C 381.113281 341.910156 481.085938 342.648438 510.722656 343.269531 C 527.351562 343.621094 543.976562 344.140625 560.597656 344.828125 C 562.542969 344.910156 562.539062 341.882812 560.597656 341.804688 Z M 323.90625 349.578125 C 314.433594 348.957031 304.9375 348.765625 295.449219 349 C 293.503906 349.046875 293.496094 352.074219 295.449219 352.023438 C 304.9375 351.789062 314.433594 351.984375 323.90625 352.605469 C 325.847656 352.730469 325.839844 349.707031 323.90625 349.578125 Z M 323.90625 349.578125 " fill-opacity="1" fill-rule="nonzero"/></g></svg>